<?xml version="1.0" encoding="utf-8"?>
<!-- Generator: Adobe Illustrator 17.0.0, SVG Export Plug-In . SVG Version: 6.00 Build 0)  -->
<!DOCTYPE svg PUBLIC "-//W3C//DTD SVG 1.1//EN" "http://www.w3.org/Graphics/SVG/1.1/DTD/svg11.dtd">
<svg version="1.1" id="Layer_1" xmlns="http://www.w3.org/2000/svg" xmlns:xlink="http://www.w3.org/1999/xlink" x="0px" y="0px"
	 width="745px" height="427px" viewBox="0 0 745 427" enable-background="new 0 0 745 427" xml:space="preserve">
<rect x="79" y="136" fill="#FFBE8D" width="66" height="26"/>
<rect x="76.999" y="170" fill="none" width="73.001" height="38"/>
<text transform="matrix(1 0 0 1 80.6621 178.52)" font-family="'MyriadPro-Regular'" font-size="12">Systemd unit</text>
<rect x="2.002" y="44" fill="none" width="744.497" height="28.5"/>
<text transform="matrix(1 0 0 1 274.9521 65.2998)" font-family="'MyriadPro-Regular'" font-size="30">Fleet in Core OS</text>
<g>
	
		<path fill-rule="evenodd" clip-rule="evenodd" fill="#999999" stroke="#000000" stroke-width="8.5039" stroke-linejoin="round" stroke-miterlimit="22.9256" d="
		M303.684,188.011c1.043-0.62,0.113-1.71-0.785-1.177c-1.797,1.068-3.602,2.124-5.411,3.172c-0.238-2.308-0.475-4.617-0.713-6.925
		c-0.07-0.677-0.844-0.46-0.784,0.122l0.021,0.209c-1.223,0.022-2.464-0.501-3.662-0.253c-0.396,0.082-0.756,0.26-1.1,0.477
		c-0.47-1.042-1.098-1.96-1.858-2.602c1.138-0.676,0.123-1.866-0.856-1.284l-1.115,0.663c-1.65,0.98-3.228,1.893-4.789,2.798
		c-0.259-2.518-0.519-5.037-0.778-7.555c-0.076-0.739-0.921-0.502-0.856,0.133l0.023,0.228c-1.335,0.024-2.688-0.547-3.995-0.276
		c-1.107,0.23-1.953,1.142-2.929,1.713c0.849-0.079,1.698-0.158,2.547-0.237c-0.6,0.668-1.201,1.336-1.801,2.004
		c0.885-0.559,1.63-1.469,2.656-1.676c1.223-0.246,2.473,0.382,3.72,0.392l0.593,5.749c-2.652,1.538-5.284,3.081-8.168,4.914
		l-0.43,0.256c-0.38,0.071-0.668,0.404-0.668,0.806c0,0.453,0.367,0.82,0.818,0.82c0.256,0,0.484-0.118,0.634-0.302l1.201-0.714l0,0
		c1.414,2.347,2.55,6.749,1.942,10.092c-6.722,2.182-10.736,5.773-13.962,8.941c0.044,1.667,0.089,3.334,0.133,5.001
		c4.912,2.169,2.764,8.476,6.935,10.202c8.269,3.42,16.743,7.454,26.272,6.401c7.087-0.782,14.681-4.532,18.27-10.669
		c-1.171-4.036-4.231-6.999-8.216-9.272c0.161-0.193,0.316-0.385,0.465-0.574c2.323-2.955,1.262-7.281,0.169-10.928
		c1.225-0.868,0.085-2.202-0.971-1.457c-0.462,0.326-0.924,0.652-1.386,0.978C307.283,196.391,306.387,190.293,303.684,188.011
		L303.684,188.011z M296.194,185.171l0.543,5.269c-1.174,0.681-2.344,1.363-3.538,2.075c-0.135-0.489-0.292-1.093-1.353-1.22
		c-0.413,0.292-0.827,0.586-1.243,0.88l0.021-0.015c1.673-1.182,1.94-4.198,1.2-6.921c0.298-0.199,0.611-0.358,0.96-0.428
		C293.905,184.586,295.051,185.162,296.194,185.171L296.194,185.171z M291.611,184.548l0.389-0.036l-0.294,0.327
		C291.676,184.741,291.644,184.644,291.611,184.548z"/>
	<path fill-rule="evenodd" clip-rule="evenodd" fill="#9C754E" d="M297.719,192.252l-0.944-9.171
		c-0.07-0.677-0.844-0.46-0.784,0.122l0.968,9.39L297.719,192.252z"/>
	<linearGradient id="SVGID_1_" gradientUnits="userSpaceOnUse" x1="288.9854" y1="231.6077" x2="288.9854" y2="205.2969">
		<stop  offset="0" style="stop-color:#A78B6B"/>
		<stop  offset="1" style="stop-color:#FFFFFF"/>
	</linearGradient>
	<path fill-rule="evenodd" clip-rule="evenodd" fill="url(#SVGID_1_)" d="M263.18,208.497c0.044,1.667,0.089,3.334,0.133,5.001
		c5.134,2.267,3.038,8.59,6.935,10.202c8.269,3.42,16.743,7.454,26.272,6.401c7.33-0.81,14.825-4.779,18.27-10.669
		c-10.269-4.268-20.537-8.535-30.806-12.803C277.05,207.253,270.115,207.875,263.18,208.497z"/>
	<linearGradient id="SVGID_2_" gradientUnits="userSpaceOnUse" x1="244.9243" y1="225.2804" x2="327.761" y2="225.2804">
		<stop  offset="0" style="stop-color:#A25641"/>
		<stop  offset="1" style="stop-color:#CA6C38"/>
	</linearGradient>
	<path fill-rule="evenodd" clip-rule="evenodd" fill="url(#SVGID_2_)" d="M267.672,220.289c0.476,1.498,1.091,2.797,2.576,3.411
		c8.269,3.42,16.743,7.454,26.272,6.401c2.891-0.319,5.808-1.131,8.493-2.358C294.869,229.673,282.084,226.54,267.672,220.289z"/>
	<linearGradient id="SVGID_3_" gradientUnits="userSpaceOnUse" x1="273.6056" y1="209.9331" x2="304.3704" y2="209.9331">
		<stop  offset="0" style="stop-color:#A25641"/>
		<stop  offset="1" style="stop-color:#CA6C38"/>
	</linearGradient>
	<path fill-rule="evenodd" clip-rule="evenodd" fill="url(#SVGID_3_)" d="M263.18,208.497c3.178,1.029,6.527,2.163,9.976,3.274
		c0.034,5.991,3.781,7.146,7.593,8.128c3.812,0.982,7.69,1.792,9.053-0.375c8.695,1.828,17.358,2.4,24.988-0.092
		c-1.617-5.573-6.837-9.1-13.117-11.59c-1.184,2.087-4.223,1.276-7.084,0.152c-2.861-1.125-5.544-2.563-5.485-7.064
		c-3.251-0.787-6.391-1.471-9.121-2.169C271.505,200.772,266.838,204.907,263.18,208.497z"/>
	
		<path fill-rule="evenodd" clip-rule="evenodd" fill="#522231" stroke="#231F20" stroke-width="0.216" stroke-miterlimit="22.9256" d="
		M273.582,210.964c1.976-1.311,3.952-2.622,5.929-3.933c0.135,0.266,0.271,0.533,0.406,0.799c-2,1.4-4.001,2.801-6.001,4.201
		c-0.127,3.941,1.379,5.439,6.668,6.935c3.228,0.913,7.012,2.323,9.068-0.267l7.688-5.933l1.671-0.738l-8.54,6.888
		c8.518,2.204,18.971,1.571,24.319,0.518c-7.63,2.492-16.293,1.92-24.988,0.092c-1.363,2.167-5.241,1.357-9.053,0.375
		c-3.812-0.982-7.559-2.137-7.593-8.128c-3.449-1.111-6.798-2.245-9.976-3.274C266.648,209.32,270.115,210.142,273.582,210.964z"/>
	<path fill-rule="evenodd" clip-rule="evenodd" fill="#9C754E" d="M282.885,185.66l-1.03-10.006
		c-0.076-0.739-0.921-0.502-0.856,0.133l1.056,10.245L282.885,185.66z"/>
	<path fill-rule="evenodd" clip-rule="evenodd" fill="#9C754E" d="M274.953,205.599l18.285-12.947
		c1.337-0.947,0.092-2.402-1.06-1.59l-18.738,13.22L274.953,205.599z"/>
	<circle fill-rule="evenodd" clip-rule="evenodd" fill="#FFB761" cx="274.158" cy="205.001" r="1.015"/>
	<linearGradient id="SVGID_4_" gradientUnits="userSpaceOnUse" x1="284.5071" y1="227.5763" x2="284.5071" y2="183.349">
		<stop  offset="0" style="stop-color:#D1D3D4"/>
		<stop  offset="1" style="stop-color:#FFFFFF"/>
	</linearGradient>
	<path fill-rule="evenodd" clip-rule="evenodd" fill="url(#SVGID_4_)" d="M274.523,203.519c0.892,0.158,0.833,0.908,1.232,1.354
		c3.461,3.87,3.408,10.068-1.307,13.063c8.021-2.95,14.968-8.733,18.607-13.361c2.535-3.224,1.376-7.944,0.184-11.923
		c-0.152-0.506-0.23-1.216-1.392-1.356C286.201,195.293,280.168,199.521,274.523,203.519z"/>
	<path fill-rule="evenodd" clip-rule="evenodd" fill="#9C754E" d="M273.976,190.192l15.417-9.159
		c1.138-0.676,0.123-1.866-0.856-1.284l-15.783,9.379L273.976,190.192z"/>
	<circle fill-rule="evenodd" clip-rule="evenodd" fill="#FFB761" cx="273.365" cy="189.66" r="0.82"/>
	<linearGradient id="SVGID_5_" gradientUnits="userSpaceOnUse" x1="282.929" y1="210.3734" x2="282.929" y2="174.9245">
		<stop  offset="0" style="stop-color:#D1D3D4"/>
		<stop  offset="1" style="stop-color:#FFFFFF"/>
	</linearGradient>
	<path fill-rule="evenodd" clip-rule="evenodd" fill="url(#SVGID_5_)" d="M273.644,188.599c0.721-0.128,1.066,0.051,1.557,0.865
		c2.084,3.457,3.563,11.376-0.247,13.796c6.203-3.411,10.898-7.731,15.67-11.1c2.707-1.911,1.734-8.624-1.231-11.127
		c-0.326-0.275-1.11-0.94-1.921-0.652C282.702,183.217,278.535,185.489,273.644,188.599z"/>
	<linearGradient id="SVGID_6_" gradientUnits="userSpaceOnUse" x1="274.0983" y1="177.4366" x2="282.053" y2="177.4366">
		<stop  offset="0" style="stop-color:#0095DA"/>
		<stop  offset="1" style="stop-color:#8ED8F8"/>
	</linearGradient>
	<path fill-rule="evenodd" clip-rule="evenodd" fill="url(#SVGID_6_)" d="M281.855,175.654c-0.109,0.23-0.53,0.356-0.832,0.361
		c-1.335,0.024-2.688-0.547-3.995-0.276c-1.107,0.23-1.953,1.142-2.929,1.713c0.849-0.079,1.698-0.158,2.547-0.237
		c-0.6,0.668-1.201,1.336-1.801,2.004c0.885-0.559,1.63-1.469,2.656-1.676c1.223-0.246,2.473,0.383,3.72,0.392
		c0.302,0.002,0.737-0.092,0.832-0.356C281.987,176.938,281.921,176.296,281.855,175.654z"/>
	<path fill-rule="evenodd" clip-rule="evenodd" fill="#9C754E" d="M290.45,210.526l16.759-11.867
		c1.225-0.868,0.085-2.202-0.971-1.457l-17.175,12.117L290.45,210.526z"/>
	<circle fill-rule="evenodd" clip-rule="evenodd" fill="#FFB761" cx="289.72" cy="209.979" r="0.93"/>
	<linearGradient id="SVGID_7_" gradientUnits="userSpaceOnUse" x1="299.2061" y1="230.6697" x2="299.2061" y2="190.1332">
		<stop  offset="0" style="stop-color:#D1D3D4"/>
		<stop  offset="1" style="stop-color:#FFFFFF"/>
	</linearGradient>
	<path fill-rule="evenodd" clip-rule="evenodd" fill="url(#SVGID_7_)" d="M290.055,208.62c0.818,0.145,0.763,0.832,1.129,1.241
		c3.172,3.547,3.124,9.228-1.198,11.973c7.352-2.704,13.719-8.005,17.055-12.246c2.323-2.955,1.262-7.281,0.169-10.928
		c-0.139-0.464-0.211-1.115-1.275-1.243C300.759,201.081,295.229,204.956,290.055,208.62z"/>
	<path fill-rule="evenodd" clip-rule="evenodd" fill="#9C754E" d="M289.554,196.405l14.13-8.394c1.043-0.62,0.113-1.71-0.785-1.177
		l-14.466,8.596L289.554,196.405z"/>
	<circle fill-rule="evenodd" clip-rule="evenodd" fill="#FFB761" cx="288.994" cy="195.918" r="0.752"/>
	<linearGradient id="SVGID_8_" gradientUnits="userSpaceOnUse" x1="297.7597" y1="214.9025" x2="297.7597" y2="182.4116">
		<stop  offset="0" style="stop-color:#D1D3D4"/>
		<stop  offset="1" style="stop-color:#FFFFFF"/>
	</linearGradient>
	<path fill-rule="evenodd" clip-rule="evenodd" fill="url(#SVGID_8_)" d="M289.249,194.945c0.661-0.117,0.977,0.047,1.427,0.793
		c1.91,3.168,3.266,10.427-0.226,12.645c5.685-3.126,9.989-7.086,14.363-10.174c2.481-1.752,1.589-7.904-1.128-10.199
		c-0.299-0.252-1.017-0.861-1.76-0.597C297.551,190.012,293.733,192.095,289.249,194.945z"/>
	<linearGradient id="SVGID_9_" gradientUnits="userSpaceOnUse" x1="289.6659" y1="184.7142" x2="296.9569" y2="184.7142">
		<stop  offset="0" style="stop-color:#0095DA"/>
		<stop  offset="1" style="stop-color:#8ED8F8"/>
	</linearGradient>
	<path fill-rule="evenodd" clip-rule="evenodd" fill="url(#SVGID_9_)" d="M296.775,183.08c-0.1,0.211-0.486,0.326-0.763,0.331
		c-1.223,0.022-2.464-0.501-3.662-0.253c-1.015,0.211-1.79,1.046-2.685,1.57c0.778-0.072,1.556-0.145,2.335-0.217
		c-0.55,0.612-1.1,1.225-1.651,1.837c0.812-0.512,1.494-1.347,2.435-1.536c1.121-0.225,2.267,0.351,3.41,0.36
		c0.277,0.002,0.675-0.084,0.763-0.327C296.896,184.257,296.836,183.669,296.775,183.08z"/>
</g>
<g>
	
		<path fill-rule="evenodd" clip-rule="evenodd" fill="#999999" stroke="#000000" stroke-width="8.5039" stroke-linejoin="round" stroke-miterlimit="22.9256" d="
		M365.257,212.456c1.043-0.62,0.113-1.71-0.785-1.177c-1.797,1.068-3.602,2.124-5.411,3.172c-0.238-2.308-0.475-4.617-0.713-6.925
		c-0.07-0.677-0.844-0.46-0.784,0.122l0.022,0.209c-1.223,0.022-2.464-0.501-3.662-0.253c-0.396,0.082-0.756,0.26-1.1,0.477
		c-0.47-1.042-1.098-1.96-1.858-2.602c1.138-0.676,0.123-1.866-0.856-1.284l-1.115,0.663c-1.65,0.98-3.228,1.893-4.789,2.798
		c-0.259-2.518-0.519-5.037-0.778-7.555c-0.076-0.739-0.921-0.502-0.856,0.133l0.023,0.228c-1.335,0.024-2.688-0.547-3.995-0.276
		c-1.107,0.23-1.953,1.142-2.929,1.713c0.849-0.079,1.698-0.158,2.547-0.237c-0.6,0.668-1.201,1.336-1.801,2.004
		c0.885-0.559,1.63-1.469,2.656-1.676c1.223-0.246,2.473,0.383,3.72,0.393l0.593,5.749c-2.652,1.538-5.284,3.081-8.168,4.914
		l-0.43,0.256c-0.38,0.071-0.668,0.404-0.668,0.805c0,0.453,0.367,0.82,0.818,0.82c0.256,0,0.484-0.118,0.634-0.302l1.201-0.714l0,0
		c1.414,2.347,2.55,6.749,1.942,10.092c-6.722,2.182-10.736,5.773-13.962,8.941c0.044,1.667,0.089,3.334,0.133,5.001
		c4.912,2.169,2.764,8.476,6.935,10.202c8.269,3.42,16.743,7.454,26.272,6.401c7.087-0.782,14.681-4.532,18.27-10.669
		c-1.171-4.036-4.232-6.999-8.216-9.271c0.161-0.193,0.316-0.385,0.465-0.574c2.324-2.955,1.262-7.281,0.169-10.928
		c1.225-0.868,0.085-2.202-0.971-1.457c-0.462,0.326-0.924,0.652-1.386,0.978C368.856,220.837,367.96,214.739,365.257,212.456
		L365.257,212.456z M357.767,209.617l0.543,5.269c-1.174,0.681-2.344,1.363-3.538,2.075c-0.135-0.489-0.292-1.093-1.353-1.22
		c-0.412,0.292-0.827,0.586-1.243,0.88l0.021-0.015c1.673-1.182,1.94-4.198,1.2-6.921c0.298-0.199,0.611-0.358,0.96-0.428
		C355.478,209.032,356.624,209.608,357.767,209.617L357.767,209.617z M353.184,208.993l0.389-0.036l-0.294,0.327
		C353.249,209.187,353.217,209.09,353.184,208.993z"/>
	<path fill-rule="evenodd" clip-rule="evenodd" fill="#9C754E" d="M359.292,216.697l-0.944-9.171
		c-0.07-0.677-0.844-0.46-0.784,0.122l0.968,9.39L359.292,216.697z"/>
	<linearGradient id="SVGID_10_" gradientUnits="userSpaceOnUse" x1="350.5585" y1="256.0533" x2="350.5585" y2="229.7425">
		<stop  offset="0" style="stop-color:#A78B6B"/>
		<stop  offset="1" style="stop-color:#FFFFFF"/>
	</linearGradient>
	<path fill-rule="evenodd" clip-rule="evenodd" fill="url(#SVGID_10_)" d="M324.753,232.943c0.044,1.667,0.089,3.334,0.133,5.001
		c5.134,2.267,3.038,8.59,6.935,10.202c8.269,3.42,16.743,7.454,26.272,6.401c7.33-0.81,14.825-4.779,18.27-10.669
		c-10.269-4.268-20.537-8.535-30.806-12.803C338.623,231.698,331.688,232.321,324.753,232.943z"/>
	<linearGradient id="SVGID_11_" gradientUnits="userSpaceOnUse" x1="306.4975" y1="249.726" x2="389.3339" y2="249.726">
		<stop  offset="0" style="stop-color:#A25641"/>
		<stop  offset="1" style="stop-color:#CA6C38"/>
	</linearGradient>
	<path fill-rule="evenodd" clip-rule="evenodd" fill="url(#SVGID_11_)" d="M329.245,244.734c0.476,1.498,1.091,2.797,2.576,3.411
		c8.269,3.42,16.743,7.454,26.272,6.401c2.892-0.319,5.808-1.131,8.493-2.358C356.442,254.119,343.657,250.985,329.245,244.734z"/>
	<linearGradient id="SVGID_12_" gradientUnits="userSpaceOnUse" x1="335.1786" y1="234.3787" x2="365.9435" y2="234.3787">
		<stop  offset="0" style="stop-color:#A25641"/>
		<stop  offset="1" style="stop-color:#CA6C38"/>
	</linearGradient>
	<path fill-rule="evenodd" clip-rule="evenodd" fill="url(#SVGID_12_)" d="M324.753,232.943c3.178,1.029,6.527,2.163,9.977,3.274
		c0.034,5.991,3.78,7.146,7.593,8.128c3.812,0.982,7.69,1.792,9.053-0.375c8.695,1.828,17.358,2.4,24.988-0.092
		c-1.617-5.573-6.837-9.1-13.117-11.59c-1.184,2.087-4.223,1.276-7.084,0.152c-2.861-1.125-5.544-2.563-5.485-7.064
		c-3.251-0.787-6.391-1.471-9.121-2.169C333.078,225.218,328.411,229.352,324.753,232.943z"/>
	
		<path fill-rule="evenodd" clip-rule="evenodd" fill="#522231" stroke="#231F20" stroke-width="0.216" stroke-miterlimit="22.9256" d="
		M335.155,235.41c1.976-1.311,3.952-2.622,5.929-3.933c0.135,0.266,0.271,0.533,0.406,0.799c-2,1.4-4.001,2.801-6.001,4.201
		c-0.126,3.941,1.379,5.439,6.668,6.935c3.228,0.913,7.012,2.323,9.068-0.267l7.688-5.933l1.671-0.738l-8.54,6.888
		c8.518,2.204,18.971,1.571,24.319,0.517c-7.63,2.492-16.293,1.92-24.988,0.092c-1.363,2.167-5.241,1.357-9.053,0.375
		c-3.812-0.982-7.559-2.137-7.593-8.128c-3.449-1.111-6.798-2.245-9.977-3.274C328.221,233.765,331.688,234.588,335.155,235.41z"/>
	<path fill-rule="evenodd" clip-rule="evenodd" fill="#9C754E" d="M344.458,210.106l-1.03-10.006
		c-0.076-0.739-0.921-0.502-0.856,0.133l1.056,10.245L344.458,210.106z"/>
	<path fill-rule="evenodd" clip-rule="evenodd" fill="#9C754E" d="M336.526,230.044l18.285-12.947
		c1.337-0.947,0.092-2.402-1.06-1.59l-18.738,13.22L336.526,230.044z"/>
	<circle fill-rule="evenodd" clip-rule="evenodd" fill="#FFB761" cx="335.731" cy="229.447" r="1.015"/>
	<linearGradient id="SVGID_13_" gradientUnits="userSpaceOnUse" x1="346.0801" y1="252.0219" x2="346.0801" y2="207.7945">
		<stop  offset="0" style="stop-color:#D1D3D4"/>
		<stop  offset="1" style="stop-color:#FFFFFF"/>
	</linearGradient>
	<path fill-rule="evenodd" clip-rule="evenodd" fill="url(#SVGID_13_)" d="M336.096,227.964c0.892,0.158,0.833,0.908,1.232,1.354
		c3.46,3.87,3.408,10.068-1.307,13.063c8.021-2.95,14.968-8.733,18.607-13.361c2.535-3.224,1.377-7.944,0.184-11.923
		c-0.152-0.506-0.23-1.216-1.392-1.356C347.774,219.739,341.741,223.967,336.096,227.964z"/>
	<path fill-rule="evenodd" clip-rule="evenodd" fill="#9C754E" d="M335.549,214.638l15.417-9.159
		c1.138-0.676,0.123-1.866-0.856-1.284l-15.783,9.379L335.549,214.638z"/>
	<circle fill-rule="evenodd" clip-rule="evenodd" fill="#FFB761" cx="334.938" cy="214.106" r="0.82"/>
	<linearGradient id="SVGID_14_" gradientUnits="userSpaceOnUse" x1="344.502" y1="234.819" x2="344.502" y2="199.3701">
		<stop  offset="0" style="stop-color:#D1D3D4"/>
		<stop  offset="1" style="stop-color:#FFFFFF"/>
	</linearGradient>
	<path fill-rule="evenodd" clip-rule="evenodd" fill="url(#SVGID_14_)" d="M335.217,213.045c0.721-0.128,1.066,0.051,1.557,0.865
		c2.084,3.457,3.563,11.376-0.247,13.796c6.203-3.411,10.898-7.731,15.67-11.1c2.707-1.911,1.734-8.624-1.231-11.127
		c-0.326-0.275-1.11-0.94-1.921-0.652C344.275,207.662,340.108,209.935,335.217,213.045z"/>
	<linearGradient id="SVGID_15_" gradientUnits="userSpaceOnUse" x1="335.6713" y1="201.8822" x2="343.626" y2="201.8822">
		<stop  offset="0" style="stop-color:#0095DA"/>
		<stop  offset="1" style="stop-color:#8ED8F8"/>
	</linearGradient>
	<path fill-rule="evenodd" clip-rule="evenodd" fill="url(#SVGID_15_)" d="M343.428,200.1c-0.109,0.23-0.53,0.356-0.832,0.361
		c-1.335,0.024-2.688-0.547-3.995-0.276c-1.107,0.23-1.953,1.142-2.929,1.713c0.849-0.079,1.698-0.158,2.547-0.237
		c-0.6,0.668-1.201,1.336-1.801,2.004c0.885-0.559,1.63-1.469,2.656-1.676c1.223-0.246,2.473,0.383,3.72,0.393
		c0.302,0.002,0.737-0.092,0.832-0.356C343.56,201.383,343.494,200.741,343.428,200.1z"/>
	<path fill-rule="evenodd" clip-rule="evenodd" fill="#9C754E" d="M352.023,234.972l16.759-11.867
		c1.225-0.868,0.085-2.202-0.971-1.457l-17.175,12.117L352.023,234.972z"/>
	<circle fill-rule="evenodd" clip-rule="evenodd" fill="#FFB761" cx="351.293" cy="234.424" r="0.93"/>
	<linearGradient id="SVGID_16_" gradientUnits="userSpaceOnUse" x1="360.7792" y1="255.1153" x2="360.7792" y2="214.5788">
		<stop  offset="0" style="stop-color:#D1D3D4"/>
		<stop  offset="1" style="stop-color:#FFFFFF"/>
	</linearGradient>
	<path fill-rule="evenodd" clip-rule="evenodd" fill="url(#SVGID_16_)" d="M351.628,233.065c0.818,0.145,0.763,0.832,1.129,1.241
		c3.172,3.547,3.124,9.228-1.198,11.973c7.352-2.704,13.719-8.005,17.054-12.246c2.324-2.955,1.262-7.281,0.169-10.928
		c-0.139-0.464-0.211-1.115-1.275-1.243C362.332,225.526,356.802,229.401,351.628,233.065z"/>
	<path fill-rule="evenodd" clip-rule="evenodd" fill="#9C754E" d="M351.127,220.851l14.13-8.394c1.043-0.62,0.113-1.71-0.785-1.177
		l-14.466,8.596L351.127,220.851z"/>
	<circle fill-rule="evenodd" clip-rule="evenodd" fill="#FFB761" cx="350.567" cy="220.363" r="0.752"/>
	<linearGradient id="SVGID_17_" gradientUnits="userSpaceOnUse" x1="359.3328" y1="239.3479" x2="359.3328" y2="206.8573">
		<stop  offset="0" style="stop-color:#D1D3D4"/>
		<stop  offset="1" style="stop-color:#FFFFFF"/>
	</linearGradient>
	<path fill-rule="evenodd" clip-rule="evenodd" fill="url(#SVGID_17_)" d="M350.822,219.391c0.661-0.117,0.977,0.047,1.427,0.793
		c1.91,3.169,3.266,10.427-0.226,12.645c5.685-3.126,9.989-7.086,14.363-10.174c2.481-1.752,1.589-7.904-1.128-10.199
		c-0.299-0.253-1.017-0.861-1.76-0.597C359.124,214.458,355.306,216.54,350.822,219.391z"/>
	<linearGradient id="SVGID_18_" gradientUnits="userSpaceOnUse" x1="351.2389" y1="209.1598" x2="358.5299" y2="209.1598">
		<stop  offset="0" style="stop-color:#0095DA"/>
		<stop  offset="1" style="stop-color:#8ED8F8"/>
	</linearGradient>
	<path fill-rule="evenodd" clip-rule="evenodd" fill="url(#SVGID_18_)" d="M358.348,207.526c-0.1,0.211-0.485,0.326-0.763,0.331
		c-1.223,0.022-2.464-0.501-3.662-0.253c-1.015,0.211-1.79,1.047-2.685,1.57c0.778-0.072,1.556-0.145,2.335-0.217
		c-0.55,0.612-1.1,1.225-1.651,1.837c0.812-0.512,1.494-1.347,2.435-1.536c1.12-0.225,2.267,0.351,3.41,0.36
		c0.276,0.002,0.675-0.084,0.763-0.327C358.469,208.702,358.409,208.114,358.348,207.526z"/>
</g>
<g>
	
		<path fill-rule="evenodd" clip-rule="evenodd" fill="#999999" stroke="#000000" stroke-width="8.5039" stroke-linejoin="round" stroke-miterlimit="22.9256" d="
		M301.19,232.543c1.043-0.62,0.113-1.71-0.785-1.177c-1.797,1.068-3.602,2.124-5.411,3.172c-0.238-2.308-0.475-4.617-0.713-6.925
		c-0.07-0.677-0.844-0.46-0.784,0.122l0.021,0.209c-1.223,0.022-2.464-0.501-3.662-0.253c-0.396,0.082-0.756,0.26-1.1,0.477
		c-0.47-1.042-1.098-1.96-1.858-2.602c1.138-0.676,0.123-1.866-0.856-1.284l-1.115,0.663c-1.65,0.98-3.228,1.893-4.789,2.798
		c-0.259-2.518-0.518-5.037-0.778-7.555c-0.076-0.739-0.921-0.502-0.856,0.133l0.024,0.228c-1.335,0.024-2.688-0.547-3.995-0.276
		c-1.107,0.23-1.953,1.142-2.929,1.713c0.849-0.079,1.698-0.158,2.547-0.237c-0.6,0.668-1.201,1.336-1.801,2.004
		c0.885-0.559,1.63-1.469,2.656-1.676c1.222-0.246,2.473,0.383,3.72,0.393l0.593,5.749c-2.652,1.538-5.284,3.081-8.168,4.914
		l-0.43,0.256c-0.38,0.071-0.668,0.404-0.668,0.805c0,0.453,0.366,0.82,0.818,0.82c0.256,0,0.484-0.118,0.634-0.302l1.201-0.714v0
		c1.414,2.347,2.55,6.749,1.942,10.092c-6.722,2.182-10.736,5.773-13.962,8.941c0.044,1.667,0.089,3.334,0.133,5.001
		c4.912,2.169,2.764,8.476,6.935,10.202c8.269,3.42,16.743,7.454,26.272,6.401c7.087-0.782,14.681-4.532,18.27-10.669
		c-1.171-4.036-4.231-6.999-8.216-9.272c0.161-0.193,0.316-0.385,0.465-0.574c2.323-2.955,1.262-7.281,0.168-10.928
		c1.225-0.868,0.085-2.202-0.971-1.457c-0.462,0.326-0.924,0.652-1.386,0.978C304.789,240.923,303.893,234.825,301.19,232.543
		L301.19,232.543z M293.7,229.703l0.543,5.269c-1.174,0.681-2.344,1.363-3.538,2.075c-0.135-0.489-0.292-1.092-1.353-1.22
		c-0.413,0.292-0.827,0.585-1.243,0.88l0.021-0.015c1.673-1.182,1.94-4.198,1.2-6.921c0.298-0.199,0.611-0.358,0.96-0.428
		C291.41,229.118,292.557,229.694,293.7,229.703L293.7,229.703z M289.117,229.079l0.389-0.036l-0.294,0.327
		C289.182,229.273,289.15,229.176,289.117,229.079z"/>
	<path fill-rule="evenodd" clip-rule="evenodd" fill="#9C754E" d="M295.225,236.784l-0.944-9.171
		c-0.07-0.677-0.844-0.46-0.784,0.122l0.968,9.39L295.225,236.784z"/>
	<linearGradient id="SVGID_19_" gradientUnits="userSpaceOnUse" x1="286.4912" y1="276.1395" x2="286.4912" y2="249.8288">
		<stop  offset="0" style="stop-color:#A78B6B"/>
		<stop  offset="1" style="stop-color:#FFFFFF"/>
	</linearGradient>
	<path fill-rule="evenodd" clip-rule="evenodd" fill="url(#SVGID_19_)" d="M260.686,253.029c0.044,1.667,0.089,3.334,0.133,5.001
		c5.134,2.267,3.038,8.59,6.935,10.202c8.269,3.42,16.743,7.454,26.272,6.401c7.33-0.81,14.825-4.779,18.27-10.669
		c-10.269-4.267-20.537-8.535-30.806-12.802C274.556,251.785,267.621,252.407,260.686,253.029z"/>
	<linearGradient id="SVGID_20_" gradientUnits="userSpaceOnUse" x1="242.4301" y1="269.8123" x2="325.2668" y2="269.8123">
		<stop  offset="0" style="stop-color:#A25641"/>
		<stop  offset="1" style="stop-color:#CA6C38"/>
	</linearGradient>
	<path fill-rule="evenodd" clip-rule="evenodd" fill="url(#SVGID_20_)" d="M265.178,264.821c0.476,1.498,1.091,2.797,2.576,3.411
		c8.269,3.42,16.743,7.454,26.272,6.401c2.892-0.319,5.809-1.131,8.493-2.358C292.375,274.205,279.589,271.071,265.178,264.821z"/>
	<linearGradient id="SVGID_21_" gradientUnits="userSpaceOnUse" x1="271.1114" y1="254.465" x2="301.8762" y2="254.465">
		<stop  offset="0" style="stop-color:#A25641"/>
		<stop  offset="1" style="stop-color:#CA6C38"/>
	</linearGradient>
	<path fill-rule="evenodd" clip-rule="evenodd" fill="url(#SVGID_21_)" d="M260.686,253.029c3.178,1.029,6.527,2.163,9.976,3.274
		c0.034,5.991,3.78,7.146,7.593,8.128s7.69,1.792,9.053-0.375c8.695,1.828,17.358,2.4,24.988-0.092
		c-1.617-5.573-6.837-9.1-13.117-11.59c-1.184,2.087-4.223,1.276-7.084,0.152c-2.861-1.125-5.544-2.563-5.485-7.064
		c-3.251-0.787-6.391-1.471-9.121-2.169C269.011,245.304,264.343,249.439,260.686,253.029z"/>
	
		<path fill-rule="evenodd" clip-rule="evenodd" fill="#522231" stroke="#231F20" stroke-width="0.216" stroke-miterlimit="22.9256" d="
		M271.088,255.496c1.976-1.311,3.952-2.622,5.929-3.933c0.135,0.266,0.271,0.533,0.406,0.799c-2,1.4-4.001,2.801-6.001,4.201
		c-0.127,3.941,1.379,5.439,6.668,6.935c3.228,0.913,7.012,2.323,9.068-0.267l7.688-5.933l1.671-0.738l-8.54,6.888
		c8.518,2.204,18.971,1.571,24.319,0.517c-7.63,2.492-16.293,1.92-24.988,0.092c-1.363,2.167-5.241,1.357-9.053,0.375
		c-3.812-0.982-7.559-2.137-7.593-8.128c-3.449-1.111-6.798-2.245-9.976-3.274C264.154,253.852,267.621,254.674,271.088,255.496z"/>
	<path fill-rule="evenodd" clip-rule="evenodd" fill="#9C754E" d="M280.391,230.192l-1.03-10.006
		c-0.076-0.739-0.921-0.502-0.856,0.133l1.057,10.245L280.391,230.192z"/>
	<path fill-rule="evenodd" clip-rule="evenodd" fill="#9C754E" d="M272.459,250.131l18.285-12.947
		c1.337-0.947,0.092-2.402-1.06-1.59l-18.738,13.22L272.459,250.131z"/>
	<circle fill-rule="evenodd" clip-rule="evenodd" fill="#FFB761" cx="271.663" cy="249.533" r="1.015"/>
	<linearGradient id="SVGID_22_" gradientUnits="userSpaceOnUse" x1="282.0128" y1="272.1081" x2="282.0128" y2="227.8809">
		<stop  offset="0" style="stop-color:#D1D3D4"/>
		<stop  offset="1" style="stop-color:#FFFFFF"/>
	</linearGradient>
	<path fill-rule="evenodd" clip-rule="evenodd" fill="url(#SVGID_22_)" d="M272.028,248.05c0.892,0.158,0.833,0.908,1.232,1.354
		c3.46,3.87,3.408,10.068-1.307,13.063c8.021-2.95,14.968-8.733,18.607-13.361c2.535-3.224,1.376-7.944,0.184-11.923
		c-0.152-0.506-0.23-1.216-1.392-1.356C283.707,239.825,277.674,244.053,272.028,248.05z"/>
	<path fill-rule="evenodd" clip-rule="evenodd" fill="#9C754E" d="M271.482,234.724l15.417-9.159
		c1.138-0.676,0.123-1.866-0.856-1.284l-15.783,9.379L271.482,234.724z"/>
	<circle fill-rule="evenodd" clip-rule="evenodd" fill="#FFB761" cx="270.871" cy="234.192" r="0.82"/>
	<linearGradient id="SVGID_23_" gradientUnits="userSpaceOnUse" x1="280.4348" y1="254.9051" x2="280.4348" y2="219.4564">
		<stop  offset="0" style="stop-color:#D1D3D4"/>
		<stop  offset="1" style="stop-color:#FFFFFF"/>
	</linearGradient>
	<path fill-rule="evenodd" clip-rule="evenodd" fill="url(#SVGID_23_)" d="M271.15,233.131c0.721-0.128,1.066,0.051,1.557,0.865
		c2.084,3.457,3.563,11.376-0.247,13.796c6.203-3.411,10.898-7.731,15.67-11.1c2.707-1.911,1.734-8.624-1.231-11.127
		c-0.326-0.275-1.11-0.94-1.921-0.652C280.208,227.749,276.041,230.021,271.15,233.131z"/>
	<linearGradient id="SVGID_24_" gradientUnits="userSpaceOnUse" x1="271.604" y1="221.9684" x2="279.5588" y2="221.9684">
		<stop  offset="0" style="stop-color:#0095DA"/>
		<stop  offset="1" style="stop-color:#8ED8F8"/>
	</linearGradient>
	<path fill-rule="evenodd" clip-rule="evenodd" fill="url(#SVGID_24_)" d="M279.361,220.186c-0.109,0.23-0.53,0.356-0.832,0.361
		c-1.335,0.024-2.688-0.547-3.995-0.276c-1.107,0.23-1.953,1.142-2.929,1.713c0.849-0.079,1.698-0.158,2.547-0.237
		c-0.6,0.668-1.201,1.336-1.801,2.004c0.885-0.559,1.63-1.469,2.656-1.676c1.223-0.246,2.473,0.383,3.72,0.393
		c0.302,0.002,0.737-0.092,0.832-0.357C279.493,221.469,279.427,220.828,279.361,220.186z"/>
	<path fill-rule="evenodd" clip-rule="evenodd" fill="#9C754E" d="M287.955,255.058l16.759-11.867
		c1.225-0.868,0.085-2.202-0.971-1.457l-17.175,12.117L287.955,255.058z"/>
	<circle fill-rule="evenodd" clip-rule="evenodd" fill="#FFB761" cx="287.226" cy="254.51" r="0.93"/>
	<linearGradient id="SVGID_25_" gradientUnits="userSpaceOnUse" x1="296.7119" y1="275.2016" x2="296.7119" y2="234.665">
		<stop  offset="0" style="stop-color:#D1D3D4"/>
		<stop  offset="1" style="stop-color:#FFFFFF"/>
	</linearGradient>
	<path fill-rule="evenodd" clip-rule="evenodd" fill="url(#SVGID_25_)" d="M287.561,253.152c0.818,0.145,0.763,0.832,1.129,1.241
		c3.172,3.547,3.124,9.228-1.198,11.973c7.352-2.704,13.719-8.005,17.055-12.247c2.323-2.955,1.262-7.281,0.168-10.928
		c-0.139-0.464-0.211-1.115-1.275-1.243C298.264,245.613,292.735,249.487,287.561,253.152z"/>
	<path fill-rule="evenodd" clip-rule="evenodd" fill="#9C754E" d="M287.06,240.937l14.13-8.394c1.043-0.62,0.113-1.71-0.785-1.177
		l-14.466,8.596L287.06,240.937z"/>
	<circle fill-rule="evenodd" clip-rule="evenodd" fill="#FFB761" cx="286.5" cy="240.45" r="0.752"/>
	<linearGradient id="SVGID_26_" gradientUnits="userSpaceOnUse" x1="295.2655" y1="259.4343" x2="295.2655" y2="226.9435">
		<stop  offset="0" style="stop-color:#D1D3D4"/>
		<stop  offset="1" style="stop-color:#FFFFFF"/>
	</linearGradient>
	<path fill-rule="evenodd" clip-rule="evenodd" fill="url(#SVGID_26_)" d="M286.755,239.477c0.661-0.117,0.977,0.047,1.427,0.793
		c1.91,3.168,3.266,10.427-0.226,12.645c5.685-3.126,9.989-7.086,14.363-10.174c2.481-1.752,1.589-7.904-1.128-10.199
		c-0.299-0.252-1.017-0.861-1.76-0.597C295.057,234.544,291.239,236.627,286.755,239.477z"/>
	<linearGradient id="SVGID_27_" gradientUnits="userSpaceOnUse" x1="287.1717" y1="229.246" x2="294.4626" y2="229.246">
		<stop  offset="0" style="stop-color:#0095DA"/>
		<stop  offset="1" style="stop-color:#8ED8F8"/>
	</linearGradient>
	<path fill-rule="evenodd" clip-rule="evenodd" fill="url(#SVGID_27_)" d="M294.281,227.612c-0.1,0.211-0.486,0.326-0.763,0.331
		c-1.223,0.022-2.464-0.501-3.662-0.253c-1.015,0.211-1.79,1.046-2.685,1.57c0.778-0.072,1.556-0.145,2.335-0.217
		c-0.55,0.612-1.1,1.224-1.651,1.837c0.812-0.512,1.494-1.347,2.435-1.536c1.12-0.225,2.267,0.351,3.41,0.36
		c0.277,0.002,0.675-0.084,0.763-0.327C294.402,228.789,294.342,228.2,294.281,227.612z"/>
</g>
<text transform="matrix(1 0 0 1 646.9976 418.9995)" font-family="'MyriadPro-Regular'" font-size="8">Ship icon by Shmector.com</text>
<g>
	<g>
		<line fill="none" stroke="#050505" stroke-miterlimit="22.9256" x1="111.5" y1="200" x2="111.5" y2="290"/>
		<g>
			<polygon fill="#050505" points="111.25,296.75 107.185,286.801 111.25,289.162 115.314,286.801 			"/>
		</g>
	</g>
</g>
<g>
	<g>
		<line fill="none" stroke="#000000" stroke-miterlimit="22.9256" x1="398" y1="214" x2="603.436" y2="132.601"/>
		<g>
			<polygon points="610,130 602.248,137.444 602.945,132.795 599.253,129.886 			"/>
		</g>
	</g>
</g>
<g>
	<g>
		<line fill="none" stroke="#000000" stroke-miterlimit="22.9256" x1="398" y1="230.5" x2="603" y2="230.5"/>
		<g>
			<polygon points="610,230.5 600.051,234.565 602.412,230.5 600.051,226.436 			"/>
		</g>
	</g>
</g>
<g>
	<g>
		<line fill="none" stroke="#000000" stroke-miterlimit="22.9256" x1="398" y1="246.279" x2="603.481" y2="331.787"/>
		<g>
			<polygon points="610,334.5 599.252,334.431 602.994,331.585 602.376,326.925 			"/>
		</g>
	</g>
</g>
<text transform="matrix(1 0 0 1 306 299)" font-family="'MyriadPro-Regular'" font-size="8">Fleet</text>
<rect x="627" y="100" fill="#00C409" width="45" height="45"/>
<rect x="627" y="207" fill="#00C409" width="45" height="45"/>
<rect x="627" y="312" fill="#00C409" width="45" height="45"/>
<text transform="matrix(1 0 0 1 638 158)" font-family="'MyriadPro-Regular'" font-size="8">CoreOS</text>
<text transform="matrix(1 0 0 1 638 262.983)" font-family="'MyriadPro-Regular'" font-size="8">CoreOS</text>
<text transform="matrix(1 0 0 1 638 366.983)" font-family="'MyriadPro-Regular'" font-size="8">CoreOS</text>
<rect x="75.999" y="324" fill="none" width="73.001" height="38"/>
<text transform="matrix(1 0 0 1 88.6084 332.52)" font-family="'MyriadPro-Regular'" font-size="12">container</text>
<rect x="79.5" y="311.5" fill="none" stroke="#000000" stroke-miterlimit="10" width="66" height="7"/>
<text transform="matrix(1 0 0 1 121 238)" font-family="'MyriadPro-Regular'" font-size="8">manages</text>
<g>
	<rect x="462" y="130" fill="#FFFFFF" width="78" height="62"/>
	<rect x="467" y="139" fill="#FFBE8D" width="66" height="26"/>
	<rect x="464.999" y="173" fill="none" width="73.001" height="38"/>
	<text transform="matrix(1 0 0 1 468.6621 181.52)" font-family="'MyriadPro-Regular'" font-size="12">Systemd unit</text>
</g>
<g>
	<rect x="509" y="205" fill="#FFFFFF" width="78" height="62"/>
	<rect x="514" y="214" fill="#FFBE8D" width="66" height="26"/>
	<rect x="511.999" y="248" fill="none" width="73.001" height="38"/>
	<text transform="matrix(1 0 0 1 515.6621 256.52)" font-family="'MyriadPro-Regular'" font-size="12">Systemd unit</text>
</g>
<g>
	<rect x="461" y="262" fill="#FFFFFF" width="78" height="62"/>
	<rect x="466" y="271" fill="#FFBE8D" width="66" height="26"/>
	<rect x="463.999" y="305" fill="none" width="73.001" height="38"/>
	<text transform="matrix(1 0 0 1 467.6621 313.52)" font-family="'MyriadPro-Regular'" font-size="12">Systemd unit</text>
</g>
</svg>
